#N canvas 0 23 1440 799 12;
#X declare -lib mrpeach;
#X obj 13 -37 import mrpeach;
#X obj 10 181 udpsend;
#X obj 67 152 packOSC;
#X msg 10 -3 connect 192.168.7.2 7562;
#X msg 67 121 send \$1 \$2;
#X obj 67 90 pack s i;
#X msg 351 515 /sources;
#X obj 351 547 send control;
#X obj 351 407 hradio 50 1 1 5 empty empty Songs 0 -20 0 20 -262144
-1 -1 3;
#X obj 437 517 + 1;
#X obj 37 33 receive control;
#X obj 149 34 receive value;
#X obj 437 549 send value;
#X text 371 420 1;
#X obj 1094 547 send control;
#X obj 1094 407 hradio 50 1 1 2 empty empty Metadata 0 -20 0 20 -262144
-1 -1 0;
#X text 420 420 2;
#X text 471 420 3;
#X text 520 420 4;
#X text 571 420 5;
#X text 1159 420 ON;
#X msg 1094 515 /meta;
#X obj 1094 483 trigger s i;
#X obj 1186 549 send value;
#X obj 351 483 trigger s i;
#X text 1106 420 OFF;
#X obj 662 547 send control;
#X obj 662 407 hradio 50 1 1 7 empty empty HRTF_Set 0 -20 0 20 -262144
-1 -1 2;
#X obj 662 483 trigger s i;
#X obj 754 549 send value;
#X msg 662 515 /hrtf;
#X text 721 420 1013;
#X text 822 420 1031;
#X text 871 420 1032;
#X text 671 420 1008;
#X text 971 420 1053;
#X text 921 420 1048;
#X text 771 420 1022;
#X obj 655 254 send control;
#X obj 747 254 send value;
#X msg 655 222 /calibrate;
#X obj 652 23 tgl 50 1 empty empty empty 17 7 0 10 -262144 -1 -1 0
1;
#X obj 653 163 trigger s i b;
#X obj 795 214 counter;
#X floatatom 713 126 5 0 0 0 - - -;
#X msg 768 162 min 0;
#X msg 834 164 max 3;
#X obj 787 74 loadbang;
#X obj 831 253 send count;
#X obj 663 81 receive count;
#X obj 137 -36 loadbang;
#X text 715 -16 Calibration 0 = Look level and ahead 1 = Azimuth calibrated
2 = Look down 3 = Elevation calibrated;
#X connect 2 0 1 0;
#X connect 3 0 1 0;
#X connect 4 0 2 0;
#X connect 5 0 4 0;
#X connect 6 0 7 0;
#X connect 8 0 24 0;
#X connect 9 0 12 0;
#X connect 10 0 5 0;
#X connect 11 0 5 1;
#X connect 15 0 22 0;
#X connect 21 0 14 0;
#X connect 22 0 21 0;
#X connect 22 1 23 0;
#X connect 24 0 6 0;
#X connect 24 1 9 0;
#X connect 27 0 28 0;
#X connect 28 0 30 0;
#X connect 28 1 29 0;
#X connect 30 0 26 0;
#X connect 40 0 38 0;
#X connect 41 0 42 0;
#X connect 42 0 40 0;
#X connect 42 1 39 0;
#X connect 42 2 43 0;
#X connect 43 0 48 0;
#X connect 45 0 43 0;
#X connect 46 0 43 0;
#X connect 47 0 45 0;
#X connect 47 0 46 0;
#X connect 47 0 44 0;
#X connect 49 0 44 0;
#X connect 50 0 3 0;
#X coords 0 799 1 798 85 60 0;
