#N canvas 389 23 1296 936 12;
#X declare -lib mrpeach;
#X obj -92 369 hradio 50 1 1 7 empty empty HRTF_Set 0 -20 0 15 -262144
-1 -1 0;
#X text -33 382 1013;
#X text 68 382 1031;
#X text 117 382 1032;
#X text -83 382 1008;
#X text 217 382 1053;
#X text 167 382 1048;
#X text 17 382 1022;
#X obj -90 143 tgl 50 1 empty empty Calibration 0 -20 0 15 -262144
-1 -1 1 1;
#X floatatom -93 269 5 0 0 0 - - -;
#X obj -93 237 receive count;
#X obj 424 474 hsl 361 30 -180 180 0 0 empty empty Source_1_Azimuth
0 -20 0 15 -261682 -1 -1 18000 0;
#X obj 425 135 vsl 30 181 -90 90 0 0 empty empty Source_1_Elevation
0 -20 0 15 -261682 -1 -1 9000 0;
#N canvas 367 100 773 467 OSCSetup 1;
#X obj 58 -140 import mrpeach;
#X obj 241 67 packOSC;
#X msg 241 36 send \$1 \$2;
#X obj 241 5 pack s i;
#X obj 211 -52 receive control;
#X obj 323 -51 receive value;
#X obj 182 -139 loadbang;
#X obj 430 75 unpackOSC;
#X obj 431 122 print;
#X obj 430 31 udpreceive 7563;
#X obj 215 145 udpsend;
#X msg 184 -88 connect 192.168.7.2 7562;
#X connect 1 0 10 0;
#X connect 2 0 1 0;
#X connect 3 0 2 0;
#X connect 4 0 3 0;
#X connect 5 0 3 1;
#X connect 6 0 11 0;
#X connect 7 0 8 0;
#X connect 9 0 7 0;
#X connect 11 0 10 0;
#X restore -93 595 pd OSCSetup;
#X obj 638 134 vsl 30 180 1 100 0 0 empty empty Source_1_Volume 0 -20
0 15 -204786 -1 -1 16092 0;
#X obj 638 331 dbtorms;
#X floatatom 421 516 5 0 0 3 - - -;
#N canvas 766 212 1452 936 OSCOutputs 0;
#X obj 245 64 inlet HRTF;
#X obj 38 69 inlet Calib;
#X obj 246 168 send control;
#X obj 246 104 trigger s i;
#X obj 338 170 send value;
#X obj 36 331 send control;
#X obj 128 331 send value;
#X obj 34 240 trigger s i b;
#X obj 176 291 counter;
#X msg 149 239 min 0;
#X msg 215 241 max 3;
#X obj 168 151 loadbang;
#X obj 212 330 send count;
#X obj 458 243 send control;
#X obj 557 243 send value;
#X obj 458 179 trigger s i;
#X obj 652 239 send control;
#X obj 751 239 send value;
#X obj 652 175 trigger s i;
#X obj 849 210 send control;
#X obj 948 210 send value;
#X obj 849 146 trigger s i;
#X obj 460 334 inlet Azi1;
#X obj 617 332 inlet Ele1;
#X obj 479 518 send control;
#X obj 578 518 send value;
#X obj 479 454 trigger s i;
#X obj 673 514 send control;
#X obj 772 514 send value;
#X obj 673 450 trigger s i;
#X obj 870 485 send control;
#X obj 969 485 send value;
#X obj 870 421 trigger s i;
#X obj 817 332 inlet Vol1;
#X obj 439 59 inlet Azi0;
#X obj 596 57 inlet Ele0;
#X obj 796 57 inlet Vol0;
#X msg 458 211 /one/azimuth0;
#X msg 652 207 /one/elevation0;
#X msg 849 178 /one/volume0;
#X msg 479 486 /one/azimuth1;
#X msg 673 482 /one/elevation1;
#X msg 870 453 /one/volume1;
#X msg 36 299 /one/calibrate;
#X msg 246 136 /one/hrtf;
#X connect 0 0 3 0;
#X connect 1 0 7 0;
#X connect 3 0 44 0;
#X connect 3 1 4 0;
#X connect 7 0 43 0;
#X connect 7 1 6 0;
#X connect 7 2 8 0;
#X connect 8 0 12 0;
#X connect 9 0 8 0;
#X connect 10 0 8 0;
#X connect 11 0 9 0;
#X connect 11 0 10 0;
#X connect 15 0 37 0;
#X connect 15 1 14 0;
#X connect 18 0 38 0;
#X connect 18 1 17 0;
#X connect 21 0 39 0;
#X connect 21 1 20 0;
#X connect 22 0 26 0;
#X connect 23 0 29 0;
#X connect 26 0 40 0;
#X connect 26 1 25 0;
#X connect 29 0 41 0;
#X connect 29 1 28 0;
#X connect 32 0 42 0;
#X connect 32 1 31 0;
#X connect 33 0 32 0;
#X connect 34 0 15 0;
#X connect 35 0 18 0;
#X connect 36 0 21 0;
#X connect 37 0 13 0;
#X connect 38 0 16 0;
#X connect 39 0 19 0;
#X connect 40 0 24 0;
#X connect 41 0 27 0;
#X connect 42 0 30 0;
#X connect 43 0 5 0;
#X connect 44 0 2 0;
#X restore -20 739 pd OSCOutputs;
#X obj -91 205 send Calib;
#X obj -92 644 receive Calib;
#X obj -92 427 send HRTF;
#X obj -33 685 receive HRTF;
#X text -23 138 0 = Look level and ahead 1 = Azimuth calibrated 2 =
Look down 3 = Elevation calibrated;
#X floatatom 425 369 5 0 0 0 - - -;
#X floatatom 638 367 10 0 0 0 - - -;
#X obj 822 472 hsl 361 30 -180 180 0 0 empty empty Source_2_Azimuth
0 -20 0 15 -261682 -1 -1 18000 0;
#X obj 823 133 vsl 30 181 -90 90 0 0 empty empty Source_2_Elevation
0 -20 0 15 -261682 -1 -1 9000 0;
#X obj 1036 132 vsl 30 180 1 100 0 0 empty empty Source_2_Volume 0
-20 0 15 -204786 -1 -1 16092 0;
#X obj 1036 329 dbtorms;
#X floatatom 819 514 5 0 0 3 - - -;
#X floatatom 823 367 5 0 0 0 - - -;
#X obj 823 399 send Ele1;
#X floatatom 1036 365 10 0 0 0 - - -;
#X obj 1036 400 send Vol1;
#X obj 153 643 receive Vol0;
#X obj 78 672 receive Ele0;
#X obj 33 644 receive Azi0;
#X obj 819 553 send Azi1;
#X obj 421 555 send Azi0;
#X obj 425 401 send Ele0;
#X obj 638 402 send Vol0;
#X obj 262 644 receive Azi1;
#X obj 382 698 receive Vol1;
#X obj 367 646 receive Ele1;
#X msg 598 77 90;
#X msg 1004 75 90;
#X obj 758 -22 loadbang;
#X msg 762 415 0;
#X obj 758 -68 bng 15 250 50 0 empty empty empty 17 7 0 10 -262144
-1 -1;
#X msg 388 78 0;
#X msg 789 73 0;
#X connect 0 0 20 0;
#X connect 8 0 18 0;
#X connect 10 0 9 0;
#X connect 11 0 16 0;
#X connect 12 0 23 0;
#X connect 14 0 15 0;
#X connect 15 0 24 0;
#X connect 16 0 38 0;
#X connect 19 0 17 0;
#X connect 21 0 17 1;
#X connect 23 0 39 0;
#X connect 24 0 40 0;
#X connect 25 0 29 0;
#X connect 26 0 30 0;
#X connect 27 0 28 0;
#X connect 28 0 32 0;
#X connect 29 0 37 0;
#X connect 30 0 31 0;
#X connect 32 0 33 0;
#X connect 34 0 17 6;
#X connect 35 0 17 4;
#X connect 36 0 17 2;
#X connect 41 0 17 3;
#X connect 42 0 17 7;
#X connect 43 0 17 5;
#X connect 44 0 14 0;
#X connect 45 0 27 0;
#X connect 46 0 49 0;
#X connect 46 0 44 0;
#X connect 46 0 50 0;
#X connect 46 0 45 0;
#X connect 46 0 47 0;
#X connect 47 0 11 0;
#X connect 47 0 25 0;
#X connect 48 0 46 0;
#X connect 49 0 12 0;
#X connect 50 0 26 0;
#X coords 0 936 1 935 85 60 0;
